<svg xmlns="http://www.w3.org/2000/svg" viewBox="0 0 18 18">
    <defs>
        <style>
            g {
                display: none;
            }

                g:target {
                    display: inline;
                }
        </style>
    </defs>
    <g id="svg-icon-bell">
        <path d="M12,12H3A3,3,0,0,0,6,9V7a3,3,0,0,1,6,0V9a3,3,0,0,0,3,3H12Z" fill="none" stroke="white" stroke-width="2px" />
        <path d="M9,15a1.5,1.5,0,0,1-1.5-1.5V12h3v1.5A1.5,1.5,0,0,1,9,15Z" fill="white" />
    </g>
    <g id="svg-icon-ringing-bell">
        <path d="M12,12H3A3,3,0,0,0,6,9V7a3,3,0,0,1,6,0V9a3,3,0,0,0,3,3H12Z" fill="none" style="stroke: white" stroke-width="2px" />
        <path d="M9,15a1.5,1.5,0,0,1-1.5-1.5V12h3v1.5A1.5,1.5,0,0,1,9,15Z" fill="white" />
        <path d="M1.145,10A7.951,7.951,0,0,1,2.387,4M15.613,4a7.951,7.951,0,0,1,1.241,6" fill="none" stroke="white" stroke-width="2px" />
    </g>
    <g id="svg-icon-bell-un">
        <path d="M14,10v2H2V10A2,2,0,0,0,4,8V6a4,4,0,1,1,8,0V8A2,2,0,0,0,14,10ZM8,15a1.5,1.5,0,0,1-1.5-1.5V13h3v0.5A1.5,1.5,0,0,1,8,15Z" fill="currentColor" />
    </g>
    <g id="svg-icon-ringing-bell-un">
        <path d="M12,12H2V10A2,2,0,0,0,4,8V6a4,4,0,1,1,8,0V8a2,2,0,0,0,2,2v2H12ZM9.5,13.5a1.5,1.5,0,0,1-3,0V13h3v0.5ZM3.217,2.413A5.946,5.946,0,0,0,2,6a5.953,5.953,0,0,0,.2,1.451l-1.951.488A7.9,7.9,0,0,1,1.607,1.205Zm9.566,0A5.946,5.946,0,0,1,14,6a5.952,5.952,0,0,1-.2,1.451l1.951,0.488a7.9,7.9,0,0,0-1.361-6.733Z" fill="currentColor" />
    </g>
    <g id="svg-icon-plus">
        <path d="M9,3V15" fill="none" stroke="white" stroke-width="2px" />
        <path d="M15,9H3" fill="none" stroke="white" stroke-width="2px" />
    </g>
    <g id="search">
        <path d="M7.5,3A4.5,4.5,0,1,1,3,7.5,4.5,4.5,0,0,1,7.5,3Zm3.25,7.75L14,14" fill="none" stroke-width="2px" />
    </g>
    <g id="noTo">
        <path d="M1,1H29V19H1V1Z" fill="none" stroke="currentColor" stroke-width="2px" />
        <path d="M1,1L29,18" fill="none" stroke="currentColor" stroke-width="2px" />
        <path d="M29,1L1,18" fill="none" stroke="currentColor" stroke-width="2px" />
    </g>
    <g id="tinycheck">
        <path d="M4,9l2.5,2,5-6.5" fill="none" stroke="currentColor" stroke-width="2px" />
    </g>
    <g id="exclamation">
        <path d="M7,3H9V9H7V3Zm0,8H9v2H7V11Z" fill="currentColor" />
    </g>
    <g id="low">
        <path d="M13,15a1.991,1.991,0,0,1-1.723-1H6V12h5.277A2,2,0,1,1,13,15ZM3,13c0,0.338.018,0.671,0.05,1h-2C1.023,13.669,1,13.338,1,13A12,12,0,0,1,13,1c0.338,0,.669.023,1,0.05v2C13.671,3.018,13.338,3,13,3A10,10,0,0,0,3,13Z" fill="currentColor" />
    </g>
    <g id="medium">
        <path d="M13,15a1.973,1.973,0,0,1-1.918-2.535L7.365,8.748,8.779,7.334l3.733,3.733A2,2,0,1,1,13,15ZM3,13c0,0.338.018,0.671,0.05,1h-2C1.023,13.669,1,13.338,1,13A12,12,0,0,1,13,1c0.338,0,.669.023,1,0.05v2C13.671,3.018,13.338,3,13,3A10,10,0,0,0,3,13Z" fill="currentColor" />
    </g>
    <g id="high">
        <path d="M15,13a2,2,0,1,1-3-1.723V6h2v5.277A1.992,1.992,0,0,1,15,13ZM3,13c0,0.338.018,0.671,0.05,1h-2C1.023,13.669,1,13.338,1,13A12,12,0,0,1,13,1c0.338,0,.669.023,1,0.05v2C13.671,3.018,13.338,3,13,3A10,10,0,0,0,3,13Z" fill="currentColor" />
    </g>
    <g id="view">
        <path d="M8,14C3.582,14,0,8,0,8S3.582,2,8,2s8,6,8,6S12.418,14,8,14ZM8,4a4,4,0,1,0,4,4A4,4,0,0,0,8,4Zm0,6a2,2,0,1,1,2-2A2,2,0,0,1,8,10Z" fill="currentColor" />
    </g>
    <g id="ringing-bell">
        <path d="M12,12H2V10A2,2,0,0,0,4,8V6a4,4,0,1,1,8,0V8a2,2,0,0,0,2,2v2H12ZM9.5,13.5a1.5,1.5,0,0,1-3,0V13h3v0.5ZM3.217,2.413A5.946,5.946,0,0,0,2,6a5.953,5.953,0,0,0,.2,1.451l-1.951.488A7.9,7.9,0,0,1,1.607,1.205Zm9.566,0A5.946,5.946,0,0,1,14,6a5.952,5.952,0,0,1-.2,1.451l1.951,0.488a7.9,7.9,0,0,0-1.361-6.733Z" fill="currentColor" />
    </g>
    <g id="remove">
        <path d="M14,4H2V2H6V1h4V2h4V4ZM13,15H3V5H13V15ZM7,7H5v6H7V7Zm4,0H9v6h2V7Z" fill="currentColor" />
    </g>
    <g id="list">
        <path d="M5,14V12H15v2H5ZM5,7H15V9H5V7ZM5,2H15V4H5V2ZM1,12H3v2H1V12ZM1,7H3V9H1V7ZM1,2H3V4H1V2Z" fill="currentColor" />
    </g>
    <g id="edit">
        <path d="M3,10L2,14l4-1,9-9L12,1Z" fill="currentColor" />
    </g>
    <g id="dropdown">
        <path d="M2,5V5.5l4,4,4-4V5H2Z" fill="currentColor" />
    </g>
    <g id="done">
        <path d="M8,16a8,8,0,1,1,8-8A8,8,0,0,1,8,16ZM10.742,3.883L6.73,9.62,5.091,8.473,3.945,10.112l1.639,1.146h0L7.223,12.4,12.381,5.03Z" fill="currentColor" />
    </g>
    <g id="cancel">
        <path d="M8,16a8,8,0,1,1,8-8A8,8,0,0,1,8,16ZM12.243,5.172L10.828,3.757,8,6.586,5.172,3.757,3.757,5.172,6.586,8,3.757,10.828l1.414,1.414L8,9.414l2.828,2.828,1.414-1.414L9.414,8Z" fill="currentColor" />
    </g>
    <g id="bell">
        <path d="M14,10v2H2V10A2,2,0,0,0,4,8V6a4,4,0,1,1,8,0V8A2,2,0,0,0,14,10ZM8,15a1.5,1.5,0,0,1-1.5-1.5V13h3v0.5A1.5,1.5,0,0,1,8,15Z" fill="currentColor" />
    </g>
    <g id="cross-12">
        <path d="M3,3L9,9M9,3L3,9" fill="none" stroke="currentColor" stroke-width="2px" />
    </g>
    <g id="add">
        <path d="M14,9H9v5H7V9H2V7H7V2H9V7h5V9Z" fill="currentColor" />
    </g>
    <g id="attach">
        <path d="M8.548,2.716L3.387,7.6a0.949,0.949,0,0,0,0,1.395,1.085,1.085,0,0,0,1.475,0L10.023,4.11a1.9,1.9,0,0,0,0-2.789,2.171,2.171,0,0,0-2.949,0L1.913,6.2a2.846,2.846,0,0,0,0,4.184,3.256,3.256,0,0,0,4.424,0L11.5,5.5" fill="none" stroke="currentColor" stroke-width="1.25px" />
    </g>
    <g id="planing">
        <path d="M4,3h8V7H4V3ZM4,9H16v4H4V9ZM0,0H2V16H0V0Z" fill="currentColor" />
    </g>
    <g id="marketing">
        <path class="cls-1" d="M16,8H0V4H2.184A2.993,2.993,0,0,1,7.121.879h0L8,1.757l0.879-.879L8.886,0.886A2.964,2.964,0,0,1,11,0a2.971,2.971,0,0,1,2.816,4H16V8ZM5.707,2.293A1,1,0,0,0,4.293,3.707h0L4.586,4H6.408a2.972,2.972,0,0,0-.7-1.707h0Zm6,1.414h0a1,1,0,1,0-1.414-1.414h0A2.972,2.972,0,0,0,9.592,4h1.822ZM14,16H2V9H14v7Z" fill="currentColor" />
    </g>
    <g id="servs">
        <path d="M0,16V3H6V9L8,8l2,1V3h6V16H0ZM9,0h4.5l2,2h-6ZM0.5,2l2-2H7L6.5,2h-6Z" fill="currentColor" />
    </g>
    <g id="stop">
        <rect x="2" y="2" width="12" height="12" fill="currentColor" />
    </g>
    <g id="play">
        <path d="M2,0L14,8,2,16V0Z" fill="currentColor" />
    </g>
    <g id="bubbles">
        <path d="M2,1A1,1,0,1,1,1,2,1,1,0,0,1,2,1ZM2,5A1,1,0,1,1,1,6,1,1,0,0,1,2,5ZM2,9a1,1,0,1,1-1,1A1,1,0,0,1,2,9ZM6,1A1,1,0,1,1,5,2,1,1,0,0,1,6,1ZM6,5A1,1,0,1,1,5,6,1,1,0,0,1,6,5ZM6,9a1,1,0,1,1-1,1A1,1,0,0,1,6,9ZM2,13a1,1,0,1,1-1,1A1,1,0,0,1,2,13Zm4,0a1,1,0,1,1-1,1A1,1,0,0,1,6,13Z" fill="currentColor" />
    </g>
    <g id="arrow-left">
        <path d="M4,8H14" fill="none" stroke="currentColor" stroke-width="2px" />
        <path d="M8,3L3,8l5,5" fill="none" stroke="currentColor" stroke-width="2px" />
    </g>
    <g id="clock">
        <path d="M8,16a8,8,0,1,1,8-8A8,8,0,0,1,8,16ZM8,2a6,6,0,1,0,6,6A6,6,0,0,0,8,2ZM7,9V3H9V7h2V9H7Z" fill="currentColor" />
    </g>
    <g id="way-call">
        <path d="M14.684,12.078L12.523,9.91a1.125,1.125,0,0,0-1.589.03L9.845,11.032l-0.215-.12a10.836,10.836,0,0,1-2.619-1.9,10.923,10.923,0,0,1-1.9-2.631C5.072,6.308,5.033,6.238,5,6.171l0.731-.732,0.359-.361a1.131,1.131,0,0,0,.029-1.593L3.953,1.317a1.124,1.124,0,0,0-1.589.03l-0.609.614L1.772,1.978a3.53,3.53,0,0,0-.5.888,3.689,3.689,0,0,0-.223.9c-0.285,2.373.8,4.541,3.73,7.483,4.056,4.067,7.325,3.76,7.466,3.745a3.643,3.643,0,0,0,.9-0.227,3.508,3.508,0,0,0,.882-0.5l0.013,0.012,0.617-.606A1.133,1.133,0,0,0,14.684,12.078Z" fill="currentColor" />
    </g>
    <g id="way-mail">
        <path d="M1,14V6l7,4,7-4V4L8,8,1,4V2H15V14H1Z" fill="currentColor" />
    </g>
    <g id="gear">
        <path d="M16,7V9l-2.294.765a5.917,5.917,0,0,1-.423,1.023l1.081,2.162L12.95,14.364l-2.162-1.081a5.927,5.927,0,0,1-1.023.423L9,16H7L6.235,13.706a5.919,5.919,0,0,1-1.023-.423L3.05,14.364,1.636,12.95l1.081-2.162a5.921,5.921,0,0,1-.423-1.023L0,9V7l2.295-.765a5.922,5.922,0,0,1,.423-1.023L1.636,3.05,3.05,1.636,5.212,2.717a5.923,5.923,0,0,1,1.023-.423L7,0H9L9.765,2.294a5.924,5.924,0,0,1,1.023.423L12.95,1.636,14.364,3.05,13.283,5.212a5.919,5.919,0,0,1,.423,1.023ZM8,5a3,3,0,1,0,3,3A3,3,0,0,0,8,5Z" fill="currentColor" />
    </g>
    <g id="menu-docs">
        <path d="M1,16V0H9V6h6V16H1ZM11,0l4,4H11V0Z" fill="currentColor" />
    </g>
    <g id="menu-tasks">
        <path d="M1,16V6L8,0l7,6V16H10V11H6v5H1Z" fill="currentColor" />
    </g>
    <g id="menu-helpdesk">
        <path d="M14.3,11A7.055,7.055,0,0,1,11,14.313V16H5V14.313A7.055,7.055,0,0,1,1.7,11H0V5H1.7A7.055,7.055,0,0,1,5,1.687V0h6V1.7A7.055,7.055,0,0,1,14.313,5H16v6H14.3ZM4,7H2V9H4V7Zm3,7H9V12H7v2ZM9,2H7V4H9V2ZM8,6a2,2,0,1,0,2,2A2,2,0,0,0,8,6Zm6,1H12V9h2V7Z" fill="currentColor" />
    </g>
    <g id="menu-settings">
        <path d="M16,7V9l-2.294.765a5.927,5.927,0,0,1-.423,1.023l1.081,2.162L12.95,14.364l-2.162-1.081a5.929,5.929,0,0,1-1.023.423L9,16H7L6.235,13.706a5.919,5.919,0,0,1-1.023-.423L3.05,14.364,1.636,12.95l1.081-2.162a5.926,5.926,0,0,1-.423-1.023L0,9V7l2.294-.765a5.923,5.923,0,0,1,.423-1.023L1.636,3.05,3.05,1.636,5.212,2.717a5.924,5.924,0,0,1,1.023-.423L7,0H9L9.765,2.294a5.922,5.922,0,0,1,1.023.423L12.95,1.636,14.364,3.05,13.283,5.212a5.919,5.919,0,0,1,.423,1.023ZM8,5a3,3,0,1,0,3,3A3,3,0,0,0,8,5Z" fill="currentColor" />
    </g>
    <g id="menu-out">
        <path d="M16,8l-3,3V9H5V7h8V5ZM9,2H2V14H9V12h2v4H0V0H11V4H9V2Z" fill="currentColor" />
    </g>
    <g id="menu-open">
        <path d="M0,0H16V3H0V0ZM0,6H16V9H0V6Zm0,6H16v3H0V12Z" fill="currentColor" />
    </g>
    <g id="menu-rent">
        <path d="M9,7V0a7,7,0,0,1,7,7H9ZM7,16A7,7,0,1,1,7,2V9h7A7,7,0,0,1,7,16Z" fill="currentColor" />
    </g>
    <g id="menu-hand">
        <path d="M14,13v3H9V8h5v3h2v2H14ZM9,3h7V5H9V3ZM0,11H7v2H0V11ZM2,5H0V3H2V0H7V8H2V5Z" fill="currentColor" />
    </g>
    <g id="menu-areas">
        <path d="M14,10V2H6V0H16V10H14Zm-2,4H10V6H2V4H12V14ZM8,16H0V8H8v8Z" fill="currentColor" />
    </g>
    <g id="menu-users">
        <path d="M11.691,10a6.019,6.019,0,0,0-1.114-1.393A5.475,5.475,0,0,0,11,6.5v-1A5.489,5.489,0,0,0,9,1.255,2.535,2.535,0,0,1,11.18,0h0.64a2.545,2.545,0,0,1,2.545,2.545V3.173a2.536,2.536,0,0,1-1.051,2.052A4,4,0,0,1,16,9v1H11.691ZM0,16V14.5A5.5,5.5,0,0,1,3.51,9.377,3.5,3.5,0,0,1,2,6.5v-1a3.5,3.5,0,0,1,7,0v1A3.5,3.5,0,0,1,7.49,9.377,5.5,5.5,0,0,1,11,14.5V16H0Z" fill="currentColor" />
    </g>
    <g id="menu-site">
        <path class="cls-1" d="M0,0H16V4H0V0ZM0,6H4V16H0V6ZM6,6H16V16H6V6Z" fill="currentColor" />
    </g>
    <g id="menu-news">
        <path d="M0,0H7V7H0V0ZM0,9H7v7H0V9ZM9,1h7V3H9V1ZM9,4h7V6H9V4Zm0,6h7v2H9V10Zm0,3h7v2H9V13Z" fill="currentColor" />
    </g>
    <g id="case">
        <path d="M0,11V4H4V1A1,1,0,0,1,5,0h6a1,1,0,0,1,1,1V4h4v7H0ZM10,2H6V4h4V2Zm5,14H1V13H15v3Z" fill="currentColor" />
    </g>
    <g id="pause">
        <path d="M3,2H7V14H3V2ZM9,2h4V14H9V2Z" fill="currentColor" />
    </g>
    <g id="checkmark">
        <path d="M8,16a8,8,0,1,1,8-8A8,8,0,0,1,8,16ZM10.742,3.883L6.73,9.62,5.091,8.473,3.945,10.112l1.639,1.146h0L7.223,12.4,12.381,5.03Z" fill="currentColor" />
    </g>
    <g id="serv-link">
        <path d="M14.553,8.411L12.463,10.5l-1.393-1.4,2.09-2.093a2.958,2.958,0,1,0-4.18-4.187L6.889,4.922,5.5,3.527l2.09-2.093A4.93,4.93,0,0,1,14.553,8.411ZM7.016,13.16l2.093-2.09,1.4,1.393-2.093,2.09A4.93,4.93,0,0,1,1.434,7.586L3.527,5.5l1.4,1.393L2.829,8.979A2.958,2.958,0,0,0,7.016,13.16ZM4.464,10.121l5.657-5.657,1.414,1.414L5.879,11.536Z" fill="currentColor" />
    </g>
    <g id="crown">
        <path d="M14.142,4.912l0.673,6.925c0.134,0.5-2.188,1.553-5.186,2.355s-5.068,1.048-5.2.549L1.562,8.455a1.246,1.246,0,1,1,.881-1.527,1.226,1.226,0,0,1,.007.564L5.5,8.5,6.232,4.472a1.518,1.518,0,1,1,1.317-.423L10.5,7l2.331-2.441a1.213,1.213,0,0,1-.275-0.489A1.24,1.24,0,1,1,14.142,4.912Z" fill="currentColor" />
    </g>
    <g id="clock-filled">
        <path d="M8,16a8,8,0,1,1,8-8A8,8,0,0,1,8,16Zm3-6.5-3-1-0.5-5h-1L6,8.5v2h5v-1Z" fill="currentColor" />
    </g>
    <g id="mobile">
        <path d="M2,1.99406028 C2,0.892771196 2.90195036,0 4.0085302,0 L11.9914698,0 C13.1007504,0 14,0.894513756 14,1.99406028 L14,14.0059397 C14,15.1072288 13.0980496,16 11.9914698,16 L4.0085302,16 C2.8992496,16 2,15.1054862 2,14.0059397 L2,1.99406028 Z M4,4 L4,10 L12,10 L12,4 L4,4 Z M7,12 L7,14 L9,14 L9,12 L7,12 Z" fill="currentColor" />
    </g>
    <g id="cancel-circle">
        <path d="M8,16a8,8,0,1,1,8-8A8,8,0,0,1,8,16ZM12.243,5.172L10.828,3.757,8,6.586,5.172,3.757,3.757,5.172,6.586,8,3.757,10.828l1.414,1.414L8,9.414l2.828,2.828,1.414-1.414L9.414,8Z" fill="currentColor" />
    </g>	
	<g id="key">
		<path d="M18.5324038,19.4675962 L14,24 L11,24 L11,27 L8,27 L8,30 L3,30 L3,25 L13.5324038,14.4675962 C13.1881566,13.5437212 13,12.5438338 13,11.5 C13,6.80557939 16.8055794,3 21.5,3 C26.1944206,3 30,6.80557939 30,11.5 C30,16.1944206 26.1944206,20 21.5,20 C20.4561662,20 19.4562788,19.8118434 18.5324038,19.4675962 L18.5324038,19.4675962 L18.5324038,19.4675962 Z M27,9 C27,7.34314567 25.6568543,6 24,6 C22.3431457,6 21,7.34314567 21,9 C21,10.6568543 22.3431457,12 24,12 C25.6568543,12 27,10.6568543 27,9 L27,9 Z" fill="currentColor" />
	</g>		
	<g id="key1">
		<path class="cls-1" d="M27,2a2,2,0,0,0-2,2V15c0,2.73-1.27,4-4,4H8.92l2-1,2.57-2.57a2,2,0,0,0-2.83-2.83l-7,7a2,2,0,0,0,0,2.83l7,7a2,2,0,0,0,2.83-2.83L10.79,24,8.85,23H21c4.93,0,8-3.07,8-8V4A2,2,0,0,0,27,2Z" fill="currentColor" />
	</g>	
	<g id="rss">
		<rect height="512" rx="70" ry="70" transform="scale(-1,-1)" width="512" x="-512" y="-512"/>
		<path d="m 81.05643,267.04958 c 43.7041,0 84.78879,17.07214 115.66407,48.12395 30.93179,31.05179 47.96156,72.41184 47.96156,116.44072 h 67.34951 c 0,-127.8857 -103.61898,-231.92124 -230.97514,-231.92124 v 67.35657 z M 81.1624,147.65054 c 155.7603,0 282.48808,127.4197 282.48808,284.04844 H 431 C 431,237.92528 274.05354,80.30102 81.1624,80.30102 v 67.34952 z m 93.13421,236.99769 c 0,25.75647 -20.89183,46.6483 -46.6483,46.6483 C 101.89184,431.29653 81,410.41176 81,384.64823 c 0,-25.7706 20.88477,-46.64831 46.64124,-46.64831 25.75649,0 46.65537,20.87771 46.65537,46.64831 z" fill="currentColor" />
	</g>
	<g fill="none" fill-rule="evenodd" id="folder" stroke="none" stroke-width="1">
		<g fill="currentColor"><path d="M17,11 L15,7 L4.00276013,7 C2.89666625,7 2,7.88967395 2,8.991155 L2,27.008845 C2,28.1085295 2.89971268,29 3.99328744,29 L29.0067126,29 C30.1075748,29 31,28.1073772 31,27.0049107 L31,12.9950893 C31,11.8932319 30.1029399,11 28.9941413,11 L17,11 Z" id="folder"/></g>
	</g>
	<g id="menu-cleaning">
		<polygon points="84.1,67.165 84.1,105.854 18.536,105.854 18.536,22.854 84.1,22.854 84.1,28.111    96.1,16.111 96.1,10.854 6.536,10.854 6.536,117.854 96.1,117.854 96.1,111.854 96.1,55.165  " style="fill:currentColor;"/>
		<g>
			<path d="M68.232,75.635l46.455-46.456l-12.256-12.255L55.976,63.381c-0.25,0.199-0.442,0.471-0.529,0.805    l-3.611,13.721c-0.008,0.025-0.008,0.055-0.013,0.08c-0.012,0.053-0.02,0.107-0.026,0.162c-0.004,0.051-0.006,0.098-0.006,0.146    c0,0.051,0.002,0.098,0.006,0.148c0.007,0.055,0.015,0.109,0.026,0.162c0.005,0.027,0.005,0.055,0.013,0.08    c0.004,0.02,0.014,0.035,0.02,0.055c0.016,0.051,0.035,0.102,0.058,0.152c0.019,0.045,0.037,0.088,0.06,0.129    c0.023,0.043,0.051,0.084,0.079,0.125c0.026,0.041,0.056,0.084,0.086,0.121c0.031,0.039,0.065,0.072,0.101,0.107    s0.068,0.068,0.107,0.1c0.037,0.031,0.078,0.061,0.12,0.086c0.041,0.029,0.081,0.057,0.126,0.08    c0.041,0.021,0.085,0.041,0.129,0.059c0.051,0.023,0.1,0.043,0.152,0.059c0.019,0.006,0.035,0.016,0.055,0.02    c0.026,0.006,0.054,0.006,0.08,0.014c0.053,0.01,0.107,0.018,0.162,0.023c0.051,0.006,0.098,0.008,0.147,0.008    c0.049,0,0.097-0.002,0.147-0.006c0.055-0.008,0.109-0.016,0.162-0.025c0.025-0.008,0.054-0.008,0.08-0.014l13.721-3.611    C67.76,76.08,68.033,75.887,68.232,75.635z M57.377,74.234c-0.353-0.354-0.835-0.492-1.295-0.428l2.099-7.977l7.602,7.602    l-7.977,2.098C57.871,75.07,57.732,74.588,57.377,74.234z" style="fill:currentColor;"/>
			<path d="M116.77,27.096l-12.254-12.255l4.693-4.694c0,0,8.348,2.978,12.256,12.256L116.77,27.096z" style="fill:currentColor;"/>
		</g>
	</g>
	<g id="full-screen">
		<path d="M10.5,169.4c-5.8,0-10.5-4.7-10.5-10.5V71.2c0-5.8,4.7-10.5,10.5-10.5h84.1c5.8,0,10.5,4.7,10.5,10.5   c0,5.8-4.7,10.5-10.5,10.5H21.1v77.1C21.1,164.7,16.4,169.4,10.5,169.4z" fill="#6A6E7C"/><path d="M96.4,451.3H10.5c-5.8,0-10.5-4.7-10.5-10.5v-82.2c0-5.8,4.7-10.5,10.5-10.5s10.5,4.7,10.5,10.5v71.7h75.3   c5.8,0,10.5,4.7,10.5,10.5C107,446.6,102.2,451.3,96.4,451.3z" fill="#6A6E7C"/><path d="M501.5,451.3h-76.8c-5.8,0-10.5-4.7-10.5-10.5c0-5.8,4.7-10.5,10.5-10.5h66.3v-71.7   c0-5.8,4.7-10.5,10.5-10.5c5.8,0,10.5,4.7,10.5,10.5v82.2C512,446.6,507.3,451.3,501.5,451.3z" fill="#6A6E7C"/><path d="M501.5,169.4c-5.8,0-10.5-4.7-10.5-10.5V81.8h-66.3c-5.8,0-10.5-4.7-10.5-10.5c0-5.8,4.7-10.5,10.5-10.5   h76.8c5.8,0,10.5,4.7,10.5,10.5v87.7C512,164.7,507.3,169.4,501.5,169.4z" fill="#6A6E7C"/>
	</g>
	<g id="zoom-fit">
		<path d="M23,11h-1.1c-0.5-4-4.2-8.5-8.9-8.9V1c0-0.6-0.4-1-1-1s-1,0.4-1,1v1.1C6.3,2.5,2.5,7,2.1,11H1c-0.6,0-1,0.4-1,1s0.4,1,1,1   h1.1c0.5,5,4.2,8.5,8.9,8.9V23c0,0.6,0.4,1,1,1s1-0.4,1-1v-1.1c4.7-0.5,8.5-3.9,8.9-8.9H23c0.6,0,1-0.4,1-1S23.6,11,23,11z M12,20   c-4.4,0-8-3.6-8-8s3.6-8,8-8s8,3.6,8,8S16.4,20,12,20z"/><path d="M12,6c-3.3,0-6,2.7-6,6s2.7,6,6,6s6-2.7,6-6S15.3,6,12,6z M12,17c-2.8,0-5-2.2-5-5s2.2-5,5-5s5,2.2,5,5S14.8,17,12,17z"/><path d="M12,9c-1.7,0-3,1.3-3,3s1.3,3,3,3s3-1.3,3-3S13.7,9,12,9z M12,14c-1.1,0-2-0.9-2-2s0.9-2,2-2s2,0.9,2,2S13.1,14,12,14z"/>
	</g>
	<g id="zoom-in">
		<path d="M27.15,54.15a27,27,0,1,1,27-27A27,27,0,0,1,27.15,54.15Zm0-52a25,25,0,1,0,25,25A25,25,0,0,0,27.15,2.15Z"/><rect height="24.04" transform="translate(-22.64 54.65) rotate(-45)" width="2" x="53.65" y="42.63"/><rect height="2" width="28" x="13.15" y="26.15"/><rect height="28" width="2" x="26.15" y="13.15"/>
	</g>
	<g id="zoom-out">
		<path d="M27.15,54.15a27,27,0,1,1,27-27A27,27,0,0,1,27.15,54.15Zm0-52a25,25,0,1,0,25,25A25,25,0,0,0,27.15,2.15Z"/><rect height="24.04" transform="translate(-22.64 54.65) rotate(-45)" width="2" x="53.65" y="42.63"/><rect height="2" width="28" x="13.15" y="26.15"/>
	</g>
</svg>
